<svg width="54" height="54" viewBox="0 0 54 54" fill="none" xmlns="http://www.w3.org/2000/svg">
<path d="M38.5714 0H15.4286C6.90761 0 0 6.90761 0 15.4286V38.5714C0 47.0924 6.90761 54 15.4286 54H38.5714C47.0924 54 54 47.0924 54 38.5714V15.4286C54 6.90761 47.0924 0 38.5714 0Z" fill="#25D366"/>
<path d="M27 13.5a13 13 0 0 0-11.2 19.6L14 40l7.1-1.8A13 13 0 1 0 27 13.5Z" stroke="#FFFFFF" stroke-width="3" stroke-linecap="round" stroke-linejoin="round" fill="none"/><path d="M22.4 21.6c.4-.9 1.6-1 2.2-.2l1.3 1.9c.4.6.3 1.3-.2 1.8l-.8.7c.8 1.8 2.3 3.3 4.1 4.1l.7-.8c.5-.5 1.2-.6 1.8-.2l1.9 1.3c.8.6.7 1.8-.2 2.2-1 .5-2.2.7-3.3.4-4-1.1-7.1-4.2-8.2-8.2-.3-1.1-.1-2.3.4-3.3Z" fill="#FFFFFF"/>
</svg>
